<svg width="31" height="30" viewBox="0 0 31 30" fill="none" xmlns="http://www.w3.org/2000/svg">
<path d="M22.8612 7.8973C22.8612 3.53541 19.3434 0 15.0026 0C10.6617 0 7.14453 3.53541 7.14453 7.8973C7.14453 14.1467 15.0026 23.3943 15.0026 23.3943C15.0026 23.3943 22.8612 14.1145 22.8612 7.8973ZM11.1272 7.42574C11.1272 5.27411 12.8629 3.53036 15.0032 3.53036C17.1435 3.53036 18.8792 5.27411 18.8792 7.42574C18.8792 9.57737 17.1435 11.3211 15.0032 11.3211C12.8629 11.3211 11.1272 9.57737 11.1272 7.42574Z" fill="url(#paint0_linear)"/>
<path d="M19.4441 20.647C18.8036 21.5775 18.2027 22.3876 17.7021 23.0382C22.6677 23.3382 25.9221 24.4156 27.1327 25.2169C25.7144 26.1569 21.5003 27.4782 15.0023 27.4782C8.50483 27.4782 4.29009 26.1562 2.87179 25.2169C4.08245 24.4156 7.33431 23.3389 12.2949 23.0388C11.7931 22.3882 11.1915 21.5787 10.5504 20.6482C4.44001 21.2528 0.00195312 23.0697 0.00195312 25.2163C0.00195312 27.8577 6.71831 29.9999 15.0023 29.9999C23.2868 29.9999 30.002 27.859 30.002 25.2163C30.0032 23.0684 25.5601 21.2509 19.4441 20.647Z" fill="url(#paint1_linear)"/>
<defs>
<linearGradient id="paint0_linear" x1="22.8612" y1="-0.304614" x2="2.81173" y2="18.8619" gradientUnits="userSpaceOnUse">
<stop stop-color="#F4521F"/>
<stop offset="1" stop-color="#FF852D"/>
</linearGradient>
<linearGradient id="paint1_linear" x1="30.002" y1="20.5252" x2="26.647" y2="35.8378" gradientUnits="userSpaceOnUse">
<stop stop-color="#F4521F"/>
<stop offset="1" stop-color="#FF852D"/>
</linearGradient>
</defs>
</svg>
