<svg width="31" height="30" viewBox="0 0 31 30" fill="none" xmlns="http://www.w3.org/2000/svg">
<path d="M0.00195312 6.13964V23.4097C0.00195312 26.8005 2.79266 29.5493 6.23523 29.5493H23.7687C27.2112 29.5493 30.002 26.8005 30.002 23.4097V6.13964C30.002 2.74879 27.2112 0 23.7687 0H6.23523C2.79266 0 0.00195312 2.74879 0.00195312 6.13964ZM18.1797 23.1471C10.7803 25.6618 3.94879 18.9329 6.50183 11.6446C7.36206 9.18817 9.33008 7.24954 11.824 6.40223C19.2236 3.88755 26.0551 10.6164 23.5021 17.9049C22.6418 20.3613 20.6738 22.2998 18.1797 23.1471V23.1471ZM25.4117 5.83953C25.2939 6.44678 24.7838 6.80009 24.2561 6.80009C23.9349 6.80009 23.6075 6.66952 23.3569 6.38618C23.3347 6.36111 23.314 6.33424 23.2957 6.30628C23.037 5.91672 23.0289 5.45393 23.2488 5.07861C23.4045 4.81295 23.6557 4.62321 23.9565 4.54386C24.257 4.46414 24.5712 4.50508 24.8406 4.65856C25.2218 4.87499 25.4496 5.27988 25.4236 5.74412C25.4218 5.77586 25.4179 5.80814 25.4117 5.83953Z" fill="white"/>
<path d="M15.0013 8.53662C11.5089 8.53662 8.66797 11.3349 8.66797 14.7749C8.66797 18.2149 11.5089 21.0132 15.0013 21.0132C18.4937 21.0132 21.3346 18.2149 21.3346 14.7749C21.3346 11.3349 18.4937 8.53662 15.0013 8.53662Z" fill="white"/>
</svg>
