<svg width="31" height="30" xmlns="http://www.w3.org/2000/svg" xmlns:xlink="http://www.w3.org/1999/xlink" preserveAspectRatio="xMidYMid meet">
 <defs>
  <path id="f4PVF5R5E" d="m25.5,0.07l0.46,0.09l0.45,0.11l0.43,0.15l0.42,0.18l0.41,0.21l0.39,0.23l0.37,0.26l0.35,0.28l0.33,0.31l0.31,0.33l0.28,0.35l0.26,0.37l0.23,0.39l0.21,0.41l0.18,0.42l0.15,0.43l0.11,0.45l0.09,0.46l0.05,0.48l0.02,0.48l0,18.08l-0.02,0.48l-0.05,0.48l-0.09,0.46l-0.11,0.45l-0.15,0.43l-0.18,0.42l-0.21,0.41l-0.23,0.39l-0.26,0.37l-0.28,0.35l-0.31,0.33l-0.33,0.31l-0.35,0.28l-0.37,0.26l-0.39,0.23l-0.41,0.21l-0.42,0.18l-0.43,0.15l-0.45,0.11l-0.46,0.09l-0.48,0.05l-0.48,0.02l-18.08,0l-0.48,-0.02l-0.48,-0.05l-0.46,-0.09l-0.45,-0.11l-0.43,-0.15l-0.42,-0.18l-0.41,-0.21l-0.39,-0.23l-0.37,-0.26l-0.35,-0.28l-0.33,-0.31l-0.31,-0.33l-0.28,-0.35l-0.26,-0.37l-0.23,-0.39l-0.21,-0.41l-0.18,-0.42l-0.15,-0.43l-0.11,-0.45l-0.09,-0.46l-0.05,-0.48l-0.02,-0.48l0,-18.08l0.02,-0.48l0.05,-0.48l0.09,-0.46l0.11,-0.45l0.15,-0.43l0.18,-0.42l0.21,-0.41l0.23,-0.39l0.26,-0.37l0.28,-0.35l0.31,-0.33l0.33,-0.31l0.35,-0.28l0.37,-0.26l0.39,-0.23l0.41,-0.21l0.42,-0.18l0.43,-0.15l0.45,-0.11l0.46,-0.09l0.48,-0.05l0.48,-0.02l18.08,0l0.48,0.02l0.48,0.05zm-6.13,10.53l-0.8,0.33l-0.71,0.45l-0.6,0.57l-0.47,0.66l0,-2.28l-3.87,0l0,14.21l3.87,0l0,-7.24l0.08,-0.8l0.21,-0.69l0.32,-0.57l0.42,-0.46l0.48,-0.33l0.53,-0.2l0.55,-0.09l0.54,0.05l0.53,0.18l0.48,0.31l0.42,0.44l0.32,0.58l0.21,0.72l0.08,0.86l0,7.24l3.87,0l0,-8.73l-0.1,-1.35l-0.3,-1.14l-0.47,-0.94l-0.6,-0.75l-0.72,-0.58l-0.8,-0.4l-0.85,-0.23l-0.88,-0.09l-0.88,0.07l-0.86,0.2zm-12.91,13.94l3.87,0l0,-14.21l-3.87,0l0,14.21zm0.34,-19.73l-0.49,0.72l-0.17,0.89l0.17,0.88l0.49,0.73l0.72,0.49l0.88,0.18l0.88,-0.18l0.71,-0.49l0.49,-0.73l0.18,-0.88l-0.18,-0.89l-0.49,-0.72l-0.71,-0.49l-0.88,-0.18l-0.88,0.18l-0.72,0.49z"/>
 </defs>
 <g>
  <title>background</title>
  <rect fill="none" id="canvas_background" height="32" width="33" y="-1" x="-1"/>
 </g>
 <g>
  <title>Layer 1</title>
  <g id="svg_1">
   <g id="svg_2">
    <use x="-0.147059" y="-0.294117" id="svg_3" fill="#ffffff" xlink:href="#f4PVF5R5E"/>
    <g id="svg_4">
     <use x="-0.147059" y="-0.294117" id="svg_5" stroke-opacity="0" stroke="#000000" fill-opacity="0" xlink:href="#f4PVF5R5E"/>
    </g>
   </g>
  </g>
 </g>
</svg>