<?xml version="1.0" encoding="UTF-8" standalone="no"?>
<!DOCTYPE svg PUBLIC "-//W3C//DTD SVG 1.1//EN" "http://www.w3.org/Graphics/SVG/1.1/DTD/svg11.dtd">
<svg version="1.1" xmlns="http://www.w3.org/2000/svg" xmlns:xlink="http://www.w3.org/1999/xlink" preserveAspectRatio="xMidYMid meet" viewBox="-1 -1 35 35" width="31" height="37"><defs><path d="M25.5 0.07L25.96 0.16L26.41 0.27L26.84 0.42L27.26 0.6L27.67 0.81L28.06 1.04L28.43 1.3L28.78 1.58L29.11 1.89L29.42 2.22L29.7 2.57L29.96 2.94L30.19 3.33L30.4 3.74L30.58 4.16L30.73 4.59L30.84 5.04L30.93 5.5L30.98 5.98L31 6.46L31 24.54L30.98 25.02L30.93 25.5L30.84 25.96L30.73 26.41L30.58 26.84L30.4 27.26L30.19 27.67L29.96 28.06L29.7 28.43L29.42 28.78L29.11 29.11L28.78 29.42L28.43 29.7L28.06 29.96L27.67 30.19L27.26 30.4L26.84 30.58L26.41 30.73L25.96 30.84L25.5 30.93L25.02 30.98L24.54 31L6.46 31L5.98 30.98L5.5 30.93L5.04 30.84L4.59 30.73L4.16 30.58L3.74 30.4L3.33 30.19L2.94 29.96L2.57 29.7L2.22 29.42L1.89 29.11L1.58 28.78L1.3 28.43L1.04 28.06L0.81 27.67L0.6 27.26L0.42 26.84L0.27 26.41L0.16 25.96L0.07 25.5L0.02 25.02L0 24.54L0 6.46L0.02 5.98L0.07 5.5L0.16 5.04L0.27 4.59L0.42 4.16L0.6 3.74L0.81 3.33L1.04 2.94L1.3 2.57L1.58 2.22L1.89 1.89L2.22 1.58L2.57 1.3L2.94 1.04L3.33 0.81L3.74 0.6L4.16 0.42L4.59 0.27L5.04 0.16L5.5 0.07L5.98 0.02L6.46 0L24.54 0L25.02 0.02L25.5 0.07ZM19.37 10.6L18.57 10.93L17.86 11.38L17.26 11.95L16.79 12.61L16.79 10.33L12.92 10.33L12.92 24.54L16.79 24.54L16.79 17.3L16.87 16.5L17.08 15.81L17.4 15.24L17.82 14.78L18.3 14.45L18.83 14.25L19.38 14.16L19.92 14.21L20.45 14.39L20.93 14.7L21.35 15.14L21.67 15.72L21.88 16.44L21.96 17.3L21.96 24.54L25.83 24.54L25.83 15.81L25.73 14.46L25.43 13.32L24.96 12.38L24.36 11.63L23.64 11.05L22.84 10.65L21.99 10.42L21.11 10.33L20.23 10.4L19.37 10.6ZM6.46 24.54L10.33 24.54L10.33 10.33L6.46 10.33L6.46 24.54ZM6.8 4.81L6.31 5.53L6.14 6.42L6.31 7.3L6.8 8.03L7.52 8.52L8.4 8.7L9.28 8.52L9.99 8.03L10.48 7.3L10.66 6.42L10.48 5.53L9.99 4.81L9.28 4.32L8.4 4.14L7.52 4.32L6.8 4.81Z" id="f4PVF5R5E"></path></defs><g><g><use xlink:href="#f4PVF5R5E" opacity="1" fill="#ffffff" fill-opacity="1"></use><g><use xlink:href="#f4PVF5R5E" opacity="1" fill-opacity="0" stroke="#000000" stroke-width="1" stroke-opacity="0"></use></g></g></g></svg>