<svg width="262" height="262" viewBox="0 0 262 262" fill="none" xmlns="http://www.w3.org/2000/svg">
<mask id="mask0" mask-type="alpha" maskUnits="userSpaceOnUse" x="0" y="0" width="262" height="263">
<rect x="262" y="0.000244141" width="262" height="262" transform="rotate(90 262 0.000244141)" fill="#C4C4C4"/>
</mask>
<g mask="url(#mask0)">
<path d="M521.158 268.822L211.987 -40.3493" stroke="white"/>
<path d="M499.561 268.822L190.39 -40.3493" stroke="white"/>
<path d="M477.965 268.822L168.794 -40.3493" stroke="white"/>
<path d="M456.37 268.822L147.198 -40.3493" stroke="white"/>
<path d="M434.772 268.822L125.601 -40.3493" stroke="white"/>
<path d="M413.176 268.822L104.005 -40.3493" stroke="white"/>
<path d="M391.578 268.822L82.4068 -40.3493" stroke="white"/>
<path d="M369.983 268.822L60.8115 -40.3493" stroke="white"/>
<path d="M348.385 268.822L39.2139 -40.3493" stroke="white"/>
<path d="M326.79 268.822L17.6187 -40.3493" stroke="white"/>
<path d="M305.194 268.822L-3.97703 -40.3493" stroke="white"/>
<path d="M283.597 268.822L-25.5742 -40.3493" stroke="white"/>
<path d="M262 268.822L-47.1714 -40.3493" stroke="white"/>
<path d="M240.403 268.822L-68.7685 -40.3493" stroke="white"/>
<path d="M218.806 268.822L-90.3657 -40.3493" stroke="white"/>
<path d="M197.21 268.822L-111.961 -40.3493" stroke="white"/>
<path d="M175.615 268.822L-133.557 -40.3493" stroke="white"/>
<path d="M154.017 268.822L-155.154 -40.3493" stroke="white"/>
<path d="M132.422 268.822L-176.749 -40.3493" stroke="white"/>
<path d="M110.824 268.822L-198.347 -40.3493" stroke="white"/>
<path d="M89.2275 268.822L-219.944 -40.3493" stroke="white"/>
<path d="M67.6304 268.822L-241.541 -40.3493" stroke="white"/>
<path d="M46.0347 268.822L-263.137 -40.3493" stroke="white"/>
<path d="M24.439 268.822L-284.732 -40.3493" stroke="white"/>
<path d="M2.84178 268.822L-306.33 -40.3493" stroke="white"/>
</g>
</svg>
