<svg width="18" height="30" viewBox="0 0 18 30" fill="none" xmlns="http://www.w3.org/2000/svg">
<path d="M14.9788 30C14.9788 30 17.7019 30 17.7019 27.2728V2.72716C17.7019 0 14.9788 0 14.9788 0H2.72502C2.72502 0 0.00195312 0 0.00195312 2.72716V27.2728C0.00195312 30 2.72502 30 2.72502 30H14.9788ZM8.85192 28.8645C8.10037 28.8645 7.4904 28.2545 7.4904 27.503C7.4904 26.7514 8.10037 26.1414 8.85192 26.1414C9.60347 26.1414 10.2135 26.7514 10.2135 27.503C10.2135 28.2545 9.60351 28.8645 8.85192 28.8645ZM5.44809 1.66242C5.44809 1.4936 5.5829 1.36152 5.749 1.36152H11.9536C12.1196 1.36152 12.2558 1.49633 12.2558 1.66242V1.74277C12.2558 1.91295 12.121 2.04367 11.9549 2.04367H5.749C5.58427 2.04367 5.44809 1.90886 5.44809 1.74277V1.66242ZM1.36351 3.40383H16.3404V25.1883H1.36351V3.40383Z" fill="url(#paint0_linear)"/>
<defs>
<linearGradient id="paint0_linear" x1="17.7019" y1="-0.390625" x2="-7.64619" y2="20.8901" gradientUnits="userSpaceOnUse">
<stop stop-color="#F4521F"/>
<stop offset="1" stop-color="#FF852D"/>
</linearGradient>
</defs>
</svg>
