<svg width="90" height="90" viewBox="0 0 90 90" fill="none" xmlns="http://www.w3.org/2000/svg">
<g clip-path="url(#clip0)">
<path d="M45.0001 47.8186C46.657 47.8186 48.0001 46.4755 48.0001 44.8186C48.0001 43.1617 46.657 41.8186 45.0001 41.8186C43.3433 41.8186 42.0001 43.1617 42.0001 44.8186C42.0001 46.4755 43.3433 47.8186 45.0001 47.8186Z" fill="url(#paint0_linear)"/>
<path d="M45 0.000244141C20.187 0.000244141 0 20.1872 0 45.0002C0 69.8132 20.187 90.0002 45 90.0002C69.813 90.0002 90 69.8132 90 45.0002C90 20.1872 69.813 0.000244141 45 0.000244141ZM43.5 11.8187C43.5 10.9892 44.172 10.3187 45 10.3187C45.828 10.3187 46.5 10.9892 46.5 11.8187V13.3187C46.5 14.1482 45.828 14.8187 45 14.8187C44.172 14.8187 43.5 14.1482 43.5 13.3187V11.8187ZM13.5 46.3187H12C11.172 46.3187 10.5 45.6482 10.5 44.8187C10.5 43.9892 11.172 43.3187 12 43.3187H13.5C14.328 43.3187 15 43.9892 15 44.8187C15 45.6482 14.328 46.3187 13.5 46.3187ZM23.787 68.1542L22.7265 69.2147C22.434 69.5072 22.05 69.6542 21.666 69.6542C21.282 69.6542 20.898 69.5072 20.6055 69.2147C20.019 68.6283 20.019 67.6802 20.6055 67.0937L21.666 66.0332C22.2525 65.4467 23.2005 65.4467 23.787 66.0332C24.3735 66.6197 24.3735 67.5677 23.787 68.1542ZM23.787 23.6042C23.4945 23.8967 23.1105 24.0437 22.7265 24.0437C22.3425 24.0437 21.9585 23.8967 21.666 23.6042L20.6055 22.5437C20.019 21.9572 20.019 21.0092 20.6055 20.4227C21.192 19.8362 22.14 19.8362 22.7265 20.4227L23.787 21.4832C24.3735 22.0697 24.3735 23.0192 23.787 23.6042ZM46.5 77.8187C46.5 78.6482 45.828 79.3187 45 79.3187C44.172 79.3187 43.5 78.6482 43.5 77.8187V76.3187C43.5 75.4893 44.172 74.8187 45 74.8187C45.828 74.8187 46.5 75.4893 46.5 76.3187V77.8187ZM45 50.8187C42.213 50.8187 39.8835 48.8987 39.213 46.3187H28.5C27.672 46.3187 27 45.6482 27 44.8187C27 43.9892 27.672 43.3187 28.5 43.3187H39.213C39.759 41.2202 41.4015 39.5777 43.5 39.0317V23.8187C43.5 22.9892 44.172 22.3187 45 22.3187C45.828 22.3187 46.5 22.9892 46.5 23.8187V39.0317C49.08 39.7022 51 42.0302 51 44.8187C51 48.1277 48.309 50.8187 45 50.8187ZM69.3945 69.2147C69.102 69.5072 68.718 69.6542 68.334 69.6542C67.95 69.6542 67.566 69.5072 67.2735 69.2147L66.213 68.1542C65.6265 67.5677 65.6265 66.6197 66.213 66.0332C66.7995 65.4467 67.7475 65.4467 68.334 66.0332L69.3945 67.0937C69.981 67.6787 69.981 68.6283 69.3945 69.2147ZM69.3945 22.5437L68.334 23.6042C68.0415 23.8967 67.6575 24.0437 67.2735 24.0437C66.8895 24.0437 66.5055 23.8967 66.213 23.6042C65.6265 23.0177 65.6265 22.0697 66.213 21.4832L67.2735 20.4227C67.86 19.8362 68.808 19.8362 69.3945 20.4227C69.981 21.0092 69.981 21.9587 69.3945 22.5437ZM78 46.3187H76.5C75.672 46.3187 75 45.6482 75 44.8187C75 43.9892 75.672 43.3187 76.5 43.3187H78C78.828 43.3187 79.5 43.9892 79.5 44.8187C79.5 45.6482 78.828 46.3187 78 46.3187Z" fill="url(#paint1_linear)"/>
</g>
<defs>
<linearGradient id="paint0_linear" x1="42.0001" y1="41.8186" x2="43.9545" y2="48.9535" gradientUnits="userSpaceOnUse">
<stop offset="0.1097" stop-color="#FF5B00"/>
<stop offset="0.4599" stop-color="#F4511E"/>
<stop offset="0.7909" stop-color="#FD3304"/>
<stop offset="0.9888" stop-color="#E9150B"/>
</linearGradient>
<linearGradient id="paint1_linear" x1="0" y1="0.000244141" x2="29.316" y2="107.024" gradientUnits="userSpaceOnUse">
<stop offset="0.1097" stop-color="#FF5B00"/>
<stop offset="0.4599" stop-color="#F4511E"/>
<stop offset="0.7909" stop-color="#FD3304"/>
<stop offset="0.9888" stop-color="#E9150B"/>
</linearGradient>
<clipPath id="clip0">
<rect width="90" height="90" fill="white" transform="translate(0 0.000244141)"/>
</clipPath>
</defs>
</svg>
