<svg width="58" height="90" viewBox="0 0 58 90" fill="none" xmlns="http://www.w3.org/2000/svg">
<g clip-path="url(#clip0)">
<path d="M28.8064 -0.000946596C23.1354 0.037703 17.6001 1.73393 12.8853 4.87791C8.17042 8.02189 4.48289 12.4757 2.2788 17.6884C0.074715 22.9011 -0.549228 28.644 0.484152 34.2068C1.51753 39.7695 4.1629 44.908 8.09303 48.9867C11.9117 52.9567 14.4143 58.0021 15.2616 63.4389C15.4363 64.5614 16.0094 65.5839 16.8765 66.3203C17.7436 67.0566 18.847 67.4578 19.9857 67.4507H37.9858C39.1296 67.4533 40.2367 67.048 41.1074 66.3079C41.9781 65.5678 42.555 64.5418 42.7341 63.4147C43.5596 57.9947 46.0478 52.9628 49.8566 49.0109C53.8228 44.9156 56.4888 39.7434 57.5202 34.1428C58.5516 28.5422 57.9027 22.7624 55.6546 17.5282C53.4066 12.2941 49.6596 7.83845 44.8834 4.72009C40.1072 1.60173 34.5145 -0.0405965 28.8064 -0.000946596ZM29.0003 14.6688C25.1851 14.6732 21.5274 16.1871 18.8297 18.8783C16.1319 21.5696 14.6144 25.2183 14.6099 29.0243C14.6099 29.8896 14.2653 30.7195 13.652 31.3313C13.0386 31.9432 12.2067 32.2869 11.3393 32.2869C10.4719 32.2869 9.64006 31.9432 9.02672 31.3313C8.41337 30.7195 8.0688 29.8896 8.0688 29.0243C8.07457 23.4881 10.2817 18.1804 14.2059 14.2657C18.13 10.3511 23.4507 8.14928 29.0003 8.14352C29.8677 8.14352 30.6995 8.48726 31.3129 9.09912C31.9262 9.71098 32.2708 10.5408 32.2708 11.4061C32.2708 12.2714 31.9262 13.1013 31.3129 13.7132C30.6995 14.325 29.8677 14.6688 29.0003 14.6688Z" fill="url(#paint0_linear)"/>
<path d="M39.1033 71.8505H18.8744C18.4382 71.8492 18.006 71.934 17.6028 72.0999C17.1995 72.2659 16.8331 72.5097 16.5247 72.8174C16.2162 73.1251 15.9718 73.4906 15.8055 73.8929C15.6391 74.2952 15.5542 74.7263 15.5554 75.1614V78.5932C15.5531 79.9015 16.0212 81.1673 16.8747 82.1606C17.7282 83.1539 18.9105 83.809 20.2069 84.0068L21.0306 87.1244C21.2522 87.949 21.7403 88.6777 22.4192 89.1976C23.098 89.7176 23.9298 89.9997 24.7856 90.0003H33.1897C34.0455 89.9997 34.8773 89.7176 35.5562 89.1976C36.235 88.6777 36.7231 87.949 36.9448 87.1244L37.7927 84.0068C39.0826 83.809 40.2588 83.1566 41.1078 82.1678C41.9568 81.179 42.4223 79.9193 42.4199 78.6174V75.1856C42.4193 74.3059 42.0705 73.4619 41.4494 72.8374C40.8283 72.2128 39.9852 71.8581 39.1033 71.8505Z" fill="url(#paint1_linear)"/>
</g>
<defs>
<linearGradient id="paint0_linear" x1="-0.00146484" y1="-0.00164795" x2="24.9376" y2="78.2829" gradientUnits="userSpaceOnUse">
<stop offset="0.1097" stop-color="#FF5B00"/>
<stop offset="0.4599" stop-color="#F4511E"/>
<stop offset="0.7909" stop-color="#FD3304"/>
<stop offset="0.9888" stop-color="#E9150B"/>
</linearGradient>
<linearGradient id="paint1_linear" x1="15.5554" y1="71.8505" x2="19.7071" y2="94.2844" gradientUnits="userSpaceOnUse">
<stop offset="0.1097" stop-color="#FF5B00"/>
<stop offset="0.4599" stop-color="#F4511E"/>
<stop offset="0.7909" stop-color="#FD3304"/>
<stop offset="0.9888" stop-color="#E9150B"/>
</linearGradient>
<clipPath id="clip0">
<rect width="58" height="90" fill="white" transform="translate(0 0.000244141)"/>
</clipPath>
</defs>
</svg>
