<svg width="96" height="90" viewBox="0 0 96 90" fill="none" xmlns="http://www.w3.org/2000/svg">
<path d="M0.00442505 42.1994C0.00442505 40.6524 1.25823 39.3986 2.80525 39.3986C4.35227 39.3986 5.60609 40.6524 5.60609 42.1994C5.60609 43.8201 6.43685 45.2504 7.69431 46.087C9.44263 31.9837 21.3783 20.9948 35.8857 20.7329C38.7974 24.0451 43.0599 26.1413 47.8053 26.1413C52.5543 26.1413 56.819 24.0421 59.7299 20.7264H61.436C62.6438 20.7264 63.8553 20.8022 65.0559 20.9525C68.3585 16.2771 73.7465 13.4442 79.548 13.4442C81.095 13.4442 82.3488 14.698 82.3488 16.245V29.6599C85.03 32.4643 87.1292 35.791 88.5012 39.3986H92.8052C94.3523 39.3986 95.6061 40.6524 95.6061 42.1994V57.1372C95.6061 58.6842 94.3523 59.938 92.8052 59.938H88.5012C87.0169 63.8424 84.6836 67.412 81.6778 70.3536C78.6793 73.2886 75.071 75.5402 71.1455 76.9399V87.1994C71.1455 88.7464 69.8917 90.0002 68.3447 90.0002H57.1413C55.5943 90.0002 54.3405 88.7464 54.3405 87.1994V78.6102H41.27V87.1994C41.27 88.7464 40.0162 90.0002 38.4692 90.0002H27.2658C25.7188 90.0002 24.465 88.7464 24.465 87.1994V76.034C21.3126 74.5979 18.3973 72.5818 15.9487 70.134C11.0626 65.245 8.14069 58.9169 7.57615 52.1066C3.21809 50.9184 0.00442505 46.9287 0.00442505 42.1994ZM70.9588 44.4401C72.5058 44.4401 73.7596 43.1863 73.7596 41.6392C73.7596 40.0922 72.5058 38.8384 70.9588 38.8384C69.4118 38.8384 68.1579 40.0922 68.1579 41.6392C68.1579 43.1863 69.4118 44.4401 70.9588 44.4401ZM36.6019 37.3446H59.0086C60.5556 37.3446 61.8094 36.0908 61.8094 34.5438C61.8094 32.9968 60.5556 31.743 59.0086 31.743H36.6019C35.0549 31.743 33.8011 32.9968 33.8011 34.5438C33.8011 36.0908 35.0549 37.3446 36.6019 37.3446Z" fill="url(#paint0_linear)"/>
<path d="M47.8052 20.5397C42.1423 20.5397 37.5355 15.9329 37.5355 10.27C37.5355 4.60703 42.1423 0.000244141 47.8052 0.000244141C53.4682 0.000244141 58.075 4.60703 58.075 10.27C58.075 15.9329 53.4682 20.5397 47.8052 20.5397Z" fill="url(#paint1_linear)"/>
<defs>
<linearGradient id="paint0_linear" x1="95.6061" y1="13.4442" x2="75.1243" y2="106.819" gradientUnits="userSpaceOnUse">
<stop offset="0.1097" stop-color="#FF5B00"/>
<stop offset="0.4599" stop-color="#F4511E"/>
<stop offset="0.7909" stop-color="#FD3304"/>
<stop offset="0.9888" stop-color="#E9150B"/>
</linearGradient>
<linearGradient id="paint1_linear" x1="58.075" y1="0.000244141" x2="51.3846" y2="24.4247" gradientUnits="userSpaceOnUse">
<stop offset="0.1097" stop-color="#FF5B00"/>
<stop offset="0.4599" stop-color="#F4511E"/>
<stop offset="0.7909" stop-color="#FD3304"/>
<stop offset="0.9888" stop-color="#E9150B"/>
</linearGradient>
</defs>
</svg>
